<svg xmlns="http://www.w3.org/2000/svg" width="357.274" height="88.27" viewBox="0 0 357.274 88.27"><g transform="translate(-151.044 -230.955)"><g transform="translate(250.874 242.635)"><path d="M301.876,250.358c1.571.036,3.289.109,4.97.109,1.718,0,3.4-.073,5.153-.109v1.163c-3.435.291-3.435.508-3.471,5.486v7.3a15.731,15.731,0,0,0,.8,6.031,7.451,7.451,0,0,0,6.98,4.577,7.053,7.053,0,0,0,5.262-2.252c2.156-2.289,2.631-4.941,2.631-14.569,0-6.1,0-6.285-3.691-6.576v-1.163c1.462.036,2.961.073,4.422.073,1.316,0,2.668-.036,3.983-.073v1.163c-1.389.073-2.339.182-2.741,1.2a6.244,6.244,0,0,0-.329,2.035c-.183,2.434-.183,3.815-.183,4.25-.292,7.7-.4,9.7-1.315,11.88-1.9,4.4-6.176,5.631-9.392,5.631a10.688,10.688,0,0,1-7.309-2.652c-2.667-2.543-2.7-5.777-2.74-8.21V255.3c-.036-3.2-.293-3.487-3.033-3.778Z" transform="translate(-301.876 -249.196)" fill="#fff"/><path d="M345.719,250.358c1.133.036,2.266.073,3.4.073s2.229-.036,3.362-.073a44.76,44.76,0,0,0,3.434,4.65c2.595,3.161,9.794,11.7,12.571,14.969.073-10.209.036-12.389,0-14.133-.11-4.141-.256-4.214-4.276-4.323v-1.163c1.5.036,3,.073,4.532.073,1.461,0,2.741-.036,4.385-.073v1.163c-2.413.182-2.961.254-3.07,3.342-.073,1.853-.329,18.347-.365,21.508h-.585L350.762,254.5c0,2.8-.073,15.658.111,17.656.183,2.253,1.242,2.507,4.275,2.688v1.163c-1.608-.036-3.18-.073-4.787-.073-1.461,0-3,.036-4.495.073v-1.163c1.133,0,2.266-.036,2.814-.762.365-.509.4-1.054.548-4.251l.218-16.6a6.291,6.291,0,0,0-3.727-1.708Z" transform="translate(-316.701 -249.196)" fill="#fff"/><path d="M390.363,250.358c1.645.146,3.325.254,5.006.254,1.608,0,3.216-.109,4.86-.254v1.163c-3.106.327-3.106.654-3.106,5.231v12.97c0,4.432.036,4.832,3.106,5.122v1.163c-1.644-.073-3.179-.146-4.751-.146-1.717,0-3.435.073-5.116.146v-1.163c3-.327,3.07-.69,3.105-3.923.037-1.417.037-2.871.037-4.323V259.95a63.965,63.965,0,0,0-.183-6.394c-.219-1.6-.731-1.817-2.96-2.035Z" transform="translate(-331.797 -249.196)" fill="#fff"/><path d="M408.309,250.3c1.717.073,3.581.109,5.372.109,1.827,0,3.691-.036,5.518-.109v1.2c-2.266.146-3.471.218-3.471,1.708,0,1.054,3.252,10.172,3.873,11.88,1.024,2.87,1.133,3.161,2.047,6.176,2.485-6.321,4.166-10.608,5.554-14.533a17.381,17.381,0,0,0,.95-3.342c0-1.743-2.046-1.853-3.435-1.889v-1.2c1.426.073,2.814.109,4.239.109,1.461,0,2.887-.036,4.312-.109v1.2c-2.7.473-2.96,1.2-4.933,6.176-2.449,6.321-5.006,12.607-7.528,18.892H420l-7.674-21.144c-1.1-2.943-1.682-3.633-4.02-3.923Z" transform="translate(-337.865 -249.177)" fill="#fff"/><path d="M449.336,250.358H468.3c1.206,2.871,1.535,3.634,2.85,6.321l-.694.509a42.669,42.669,0,0,0-3.618-3.851c-1.571-1.453-2.777-1.743-7.016-1.816H456.06v10.427h3.618c3.435.036,4.056-.545,4.9-4.288h.95c-.073,1.708-.11,3.452-.11,5.2,0,1.671.036,3.342.11,4.977h-.95c-.841-4.142-1.644-4.36-5.7-4.36H456.06v6.177c.036,4.977.036,5.122,5.043,5.195h1.937c3.033-.036,3.655-.036,8.112-6.176l.8.436c-1.023,3.088-1.242,3.851-2.083,6.9H449.336v-1.163c2.777-.218,2.923-.908,2.96-2.579.073-1.744.109-3.488.109-7.121v-6.83a32.372,32.372,0,0,0-.292-5.523c-.329-.944-1.023-1.054-2.777-1.271Z" transform="translate(-351.738 -249.196)" fill="#fff"/><path d="M486.3,250.358c1.571,0,3.179.036,4.751.036.657,0,3.91-.036,4.64-.036a18.084,18.084,0,0,1,5.7.618,5.973,5.973,0,0,1,3.91,5.668,7.312,7.312,0,0,1-.877,3.378,8.119,8.119,0,0,1-4.422,3.669c2.3,2.943,4.6,5.886,6.943,8.792,1.462,1.853,1.937,2.144,3.838,2.362v1.163c-1.023-.036-2.01-.073-3.033-.073-.95,0-1.754.036-2.777.073-1.316-1.89-1.681-2.325-3.252-4.36-1.9-2.4-3.8-4.832-5.7-7.267-.512,0-1.023.036-1.535.036s-.987-.036-1.5-.036c0,4.578.036,6.321.072,7.484.111,2.616.659,2.652,3.874,2.979v1.163c-1.79-.073-3.581-.146-5.372-.146-1.718,0-3.252.073-5.262.146v-1.163c3.033-.291,3.033-.327,3.069-5.558V258.823a41.232,41.232,0,0,0-.292-5.958c-.256-.981-1.1-1.09-2.777-1.344Zm6.687,1.163V263.11c.548.036,1.06.073,1.571.073,3.289,0,4.5-.835,5.335-1.671a5.9,5.9,0,0,0,1.645-4.323,6.164,6.164,0,0,0-1.571-4.323c-1.316-1.308-2.522-1.308-4.824-1.344Z" transform="translate(-364.238 -249.196)" fill="#fff"/><path d="M526.495,267.956a10.293,10.293,0,0,0,1.461,3.96,7.273,7.273,0,0,0,5.848,3.2,5.148,5.148,0,0,0,5.372-5.086,4.921,4.921,0,0,0-2.119-4.069c-1.024-.727-1.681-.944-4.787-1.962-1.974-.654-6.066-2.035-6.066-6.94a7.211,7.211,0,0,1,7.6-7.3,9.63,9.63,0,0,1,5.189,1.6l1.5-1.126.84,7.448-.84.181c-.475-1.78-1.9-6.866-6.578-6.866-3.143,0-4.75,2.143-4.75,4.323a4.712,4.712,0,0,0,1.279,3.306c1.06,1.126,2.3,1.526,4.97,2.361,2.558.8,6.906,2.144,6.906,7.593,0,4.723-3.91,7.738-8.588,7.738a9.617,9.617,0,0,1-5.883-1.817l-2.01,1.309c-.036-3.742-.073-4.614-.292-7.775Z" transform="translate(-377.507 -248.992)" fill="#fff"/><path d="M554.534,250.358c1.645.146,3.325.254,5.006.254,1.608,0,3.216-.109,4.86-.254v1.163c-3.106.327-3.106.654-3.106,5.231v12.97c0,4.432.036,4.832,3.106,5.122v1.163c-1.644-.073-3.179-.146-4.751-.146-1.717,0-3.435.073-5.116.146v-1.163c3-.327,3.07-.69,3.105-3.923.037-1.417.037-2.871.037-4.323V259.95a63.965,63.965,0,0,0-.183-6.394c-.22-1.6-.731-1.817-2.96-2.035Z" transform="translate(-387.309 -249.196)" fill="#fff"/><path d="M573.169,250.3c1.205,0,2.375.036,3.581.036.585,0,2.23-.036,3.947-.073,1.681-.036,3.4-.072,4.02-.072,3.07,0,8.405.145,11.986,4.868a13.046,13.046,0,0,1,2.6,7.956,12.425,12.425,0,0,1-4.751,10.064c-3.8,2.871-8.515,2.871-10.67,2.871-.841,0-5.043-.036-5.993-.036-1.535,0-2.96,0-4.714.036v-1.2c3.07-.327,3.07-.472,3.106-4.8,0-1.017.036-2.035.036-3.052v-8.719a35.771,35.771,0,0,0-.292-5.45c-.365-.944-1.133-1.054-2.85-1.235ZM580,269.558c0,1.053.037,2.8.073,3.16.109,1.017.329,2.035,3.983,2.035,6.833,0,10.962-5.122,10.962-12.062a12.348,12.348,0,0,0-1.608-6.321c-2.923-4.977-7.966-4.977-9.976-4.977-.913,0-2.3,0-3.435.036Z" transform="translate(-393.611 -249.14)" fill="#fff"/><path d="M609.1,274.251c3.215-.254,3.691-.908,4.787-3.887,2.339-6.394,4.642-12.788,6.981-19.183a6.135,6.135,0,0,0-.585-.872,8.771,8.771,0,0,0,4.2-1.708c.913,2.979,1.1,3.56,1.791,5.595l4.86,15.077c1.279,4,1.718,4.65,4.495,4.977v1.163c-1.718-.036-3.581-.073-5.372-.073s-3.581.036-5.372.073v-1.163c1.755-.109,3.18-.254,3.18-1.744,0-1.089-1.535-5.922-2.046-7.52h-8.843c-.475,1.453-.951,2.906-1.389,4.323a14.619,14.619,0,0,0-.768,2.943c0,1.817,2.266,1.925,3.544,2v1.163c-1.534-.036-3.142-.073-4.677-.073-1.608,0-3.179.036-4.787.073Zm16.371-10.9c-1.206-3.633-2.595-8.029-3.837-10.863l-3.873,10.863Z" transform="translate(-405.76 -248.602)" fill="#fff"/><path d="M651.369,250.3c1.206,0,2.375.036,3.581.036.584,0,2.229-.036,3.947-.073,1.681-.036,3.4-.072,4.02-.072,3.07,0,8.405.145,11.986,4.868a13.05,13.05,0,0,1,2.594,7.956,12.425,12.425,0,0,1-4.751,10.064c-3.8,2.871-8.515,2.871-10.671,2.871-.84,0-5.043-.036-5.992-.036-1.536,0-2.961,0-4.714.036v-1.2c3.07-.327,3.07-.472,3.106-4.8,0-1.017.036-2.035.036-3.052v-8.719a35.774,35.774,0,0,0-.292-5.45c-.365-.944-1.133-1.054-2.85-1.235Zm6.834,19.256c0,1.053.036,2.8.073,3.16.11,1.017.329,2.035,3.983,2.035,6.834,0,10.963-5.122,10.963-12.062a12.348,12.348,0,0,0-1.608-6.321c-2.923-4.977-7.965-4.977-9.976-4.977-.914,0-2.3,0-3.435.036Z" transform="translate(-420.053 -249.14)" fill="#fff"/><path d="M302.594,305.949c1.206,0,2.375.036,3.581.036.584,0,2.229-.036,3.947-.073,1.681-.036,3.4-.073,4.02-.073,3.07,0,8.4.146,11.986,4.869a13.048,13.048,0,0,1,2.594,7.956,12.425,12.425,0,0,1-4.751,10.064c-3.8,2.87-8.515,2.87-10.671,2.87-.841,0-5.043-.036-5.993-.036-1.535,0-2.96,0-4.714.036v-1.2c3.07-.327,3.07-.473,3.106-4.8,0-1.017.036-2.035.036-3.052v-8.719a35.765,35.765,0,0,0-.293-5.449c-.365-.945-1.133-1.054-2.85-1.236Zm6.834,19.255c0,1.054.036,2.8.073,3.161.11,1.017.329,2.035,3.983,2.035,6.834,0,10.963-5.123,10.963-12.062a12.349,12.349,0,0,0-1.608-6.322c-2.923-4.977-7.966-4.977-9.976-4.977-.914,0-2.3,0-3.435.036Z" transform="translate(-302.119 -267.956)" fill="#fff"/><path d="M344.615,306.005h18.966c1.205,2.87,1.535,3.633,2.85,6.321l-.694.508a42.728,42.728,0,0,0-3.618-3.851c-1.571-1.453-2.777-1.744-7.016-1.817h-3.764v10.427h3.618c3.435.036,4.057-.545,4.9-4.287h.95c-.073,1.708-.11,3.451-.11,5.195,0,1.671.036,3.342.11,4.977h-.95c-.841-4.141-1.645-4.36-5.7-4.36h-2.814V325.3c.037,4.977.037,5.123,5.043,5.2h1.937c3.033-.036,3.654-.036,8.112-6.176l.8.436c-1.024,3.088-1.242,3.851-2.084,6.9H344.615v-1.162c2.777-.218,2.923-.909,2.959-2.58.073-1.743.11-3.487.11-7.121v-6.83a32.288,32.288,0,0,0-.293-5.522c-.328-.945-1.023-1.054-2.777-1.272Z" transform="translate(-316.328 -268.012)" fill="#fff"/><path d="M396.161,305.95c1.571.073,3.325.109,5.006.109q2.576,0,5.153-.109v1.2c-2.083.218-2.777.291-3.179,1.236-.293.726-.293,2.4-.365,5.849v7.3c0,2.507,0,4.542.109,6.177a2.9,2.9,0,0,0,.622,2c1.023.945,5.481.8,6.8.69,2.083-.146,4.276-.291,7.492-7.23l1.242.4c-1.169,3.56-1.461,4.577-2.448,8.065H396.161v-1.2c1.974-.218,2.777-.363,2.886-1.925.037-.836.073-1.563.183-6.213v-9.482a26.754,26.754,0,0,0-.255-4.323c-.329-.981-.951-1.09-2.814-1.344Z" transform="translate(-333.757 -267.994)" fill="#fff"/><path d="M431.777,306.005c1.645.145,3.325.254,5.006.254,1.608,0,3.216-.109,4.86-.254v1.162c-3.106.327-3.106.654-3.106,5.232v12.97c0,4.432.036,4.832,3.106,5.123v1.162c-1.644-.073-3.179-.145-4.751-.145-1.717,0-3.435.072-5.116.145v-1.162c3-.328,3.07-.691,3.106-3.924.036-1.417.036-2.87.036-4.323V315.6a63.748,63.748,0,0,0-.183-6.394c-.22-1.6-.731-1.817-2.96-2.035Z" transform="translate(-345.801 -268.012)" fill="#fff"/><path d="M451.667,306.005c1.206.036,2.448.073,3.654.073s2.412-.036,3.618-.073l8.551,20.563,9.1-20.563c1.169,0,2.339.036,3.544.036s2.412-.036,3.618-.036v1.162c-3.033.327-3.106.654-3.106,3.669l.073,15.586c.073,3.2.073,3.742,3.033,4.069v1.162c-1.681-.036-3.362-.073-5.043-.073-1.534,0-3,.036-4.9.073v-1.162c2.851-.182,3.252-.473,3.289-3.161V308.112l-10.6,23.833h-.621l-10.049-23.8-.219,16.821c-.036,4.36-.036,5.159,3.106,5.523v1.162c-1.279-.036-2.594-.073-3.873-.073-1.316,0-2.266.036-3.911.073v-1.162c3.07-.291,3.107-1.09,3.216-5.813l.33-14.5c-.037-2.506-.183-2.725-2.814-3.015Z" transform="translate(-352.279 -268.012)" fill="#fff"/><path d="M502.924,329.9c3.216-.255,3.691-.909,4.787-3.888,2.339-6.394,4.642-12.788,6.98-19.183a6.121,6.121,0,0,0-.584-.872,8.754,8.754,0,0,0,4.2-1.708c.914,2.979,1.1,3.561,1.792,5.595l4.86,15.077c1.279,4,1.718,4.65,4.495,4.978v1.162c-1.717-.036-3.582-.073-5.372-.073s-3.581.036-5.372.073V329.9c1.754-.109,3.18-.255,3.18-1.744,0-1.09-1.535-5.922-2.046-7.521H511c-.475,1.453-.95,2.907-1.389,4.323a14.658,14.658,0,0,0-.767,2.943c0,1.816,2.266,1.925,3.544,2v1.162c-1.534-.036-3.143-.073-4.677-.073-1.608,0-3.179.036-4.787.073ZM519.3,319c-1.206-3.633-2.6-8.029-3.837-10.862L511.585,319Z" transform="translate(-369.858 -267.418)" fill="#fff"/></g><g transform="translate(151.044 230.955)"><path d="M199.923,246.64l11.787-15.685L223.5,246.64,211.71,262.325Z" transform="translate(-167.572 -230.955)" fill="#ff5117"/><path d="M234.129,253.244l19.424-2.758L250.8,269.911l-19.424,2.758Z" transform="translate(-178.206 -237.559)" fill="#ff5117"/><path d="M252.7,279.831l15.685,11.785L252.7,303.4l-15.685-11.785Z" transform="translate(-180.113 -247.482)" fill="#ff5117"/><path d="M250.786,314.033l2.758,19.424L234.12,330.7l-2.758-19.424Z" transform="translate(-178.202 -258.114)" fill="#ff5117"/><path d="M223.488,332.609,211.7,348.294l-11.785-15.685L211.7,316.924Z" transform="translate(-167.57 -260.024)" fill="#ff5117"/><path d="M190,330.7l-19.424,2.758,2.758-19.424,19.424-2.758Z" transform="translate(-157.648 -258.114)" fill="#ff5117"/><path d="M166.729,303.4l-15.685-11.785,15.685-11.785,15.685,11.785Z" transform="translate(-151.044 -247.482)" fill="#ff5117"/><path d="M173.333,269.911l-2.758-19.424L190,253.244l2.758,19.424Z" transform="translate(-157.648 -237.559)" fill="#ff5117"/></g></g></svg>